<svg xmlns="http://www.w3.org/2000/svg" width="512" height="512" viewBox="0 0 512 512">
  <defs>
    <radialGradient id="bg" cx="50%" cy="35%" r="75%">
      <stop offset="0" stop-color="#263b88"/>
      <stop offset="0.55" stop-color="#101735"/>
      <stop offset="1" stop-color="#050817"/>
    </radialGradient>
    <linearGradient id="ring" x1="0" y1="0" x2="1" y2="1">
      <stop offset="0" stop-color="#57d9ff"/>
      <stop offset="0.5" stop-color="#9a7cff"/>
      <stop offset="1" stop-color="#ff4fd8"/>
    </linearGradient>
    <linearGradient id="note" x1="0" y1="1" x2="1" y2="0">
      <stop offset="0" stop-color="#55e6ff"/>
      <stop offset="0.55" stop-color="#8d7cff"/>
      <stop offset="1" stop-color="#ff62d8"/>
    </linearGradient>
    <filter id="glow" x="-50%" y="-50%" width="200%" height="200%">
      <feGaussianBlur stdDeviation="9" result="b"/>
      <feMerge><feMergeNode in="b"/><feMergeNode in="SourceGraphic"/></feMerge>
    </filter>
  </defs>
  <circle cx="256" cy="256" r="238" fill="url(#bg)" stroke="#0b1029" stroke-width="8"/>
  <circle cx="256" cy="256" r="214" fill="none" stroke="url(#ring)" stroke-width="14" opacity="0.95"/>
  <circle cx="256" cy="256" r="190" fill="none" stroke="#4de1ff" stroke-width="2" opacity="0.35"/>
  <g filter="url(#glow)" fill="none" stroke="url(#note)" stroke-linecap="round" stroke-linejoin="round">
    <path d="M285 120 C235 125 198 165 207 213 C216 260 270 262 292 226 C314 190 290 154 260 158 C226 163 209 200 224 229 C239 258 278 263 306 242" stroke-width="15"/>
    <path d="M285 120 L285 340" stroke-width="15"/>
    <path d="M285 340 C285 367 256 386 226 377 C198 369 196 342 218 329 C243 315 278 321 285 340 Z" fill="url(#note)" stroke="none"/>
    <path d="M285 120 C325 108 347 111 363 124" stroke-width="9" opacity="0.8"/>
  </g>
  <g fill="url(#note)" opacity="0.9">
    <circle cx="105" cy="164" r="10"/><circle cx="407" cy="185" r="8"/>
    <circle cx="391" cy="350" r="11"/><circle cx="120" cy="366" r="7"/>
  </g>
  <text x="256" y="454" text-anchor="middle" font-family="DejaVu Sans, sans-serif" font-size="44" font-weight="700" letter-spacing="6" fill="#ffffff">SYMPHONY</text>
</svg>
